<svg width="249" height="103" viewBox="0 0 249 103" fill="none" xmlns="http://www.w3.org/2000/svg">
<path d="M67.34 39.9559H59.6324V32.2483C59.6324 29.986 57.7997 28.1533 55.5374 28.1533H28.3151C26.0528 28.1533 24.2202 29.986 24.2202 32.2483V71.2732C24.2202 73.5355 26.0528 75.3682 28.3151 75.3682H63.5651L67.3795 79.1825C67.8267 79.6297 68.4274 79.8797 69.0587 79.8797C70.3696 79.8797 71.435 78.8186 71.435 77.5033V44.0509C71.435 41.7886 69.6024 39.9559 67.34 39.9559ZM67.5023 71.431H28.1529V32.0861H55.6953V39.9559H40.1177C37.8554 39.9559 36.0228 41.7886 36.0228 44.0509V59.4706C36.0228 61.7329 37.8554 63.5656 40.1177 63.5656H55.5374C57.7997 63.5656 59.6324 61.7329 59.6324 59.4706V43.8931H67.5023V71.4354V71.431ZM55.6996 43.8887V59.6284H39.9599V43.8887H55.6996Z" fill="black"/>
<path d="M131.145 41.1835C129.558 40.1795 127.686 39.671 125.586 39.671C123.486 39.671 121.614 40.1795 120.027 41.1835C118.439 42.1876 117.19 43.6125 116.304 45.4232C115.423 47.2295 114.976 49.3647 114.976 51.7761C114.976 54.1875 115.423 56.292 116.304 58.0851C117.19 59.8871 118.444 61.3076 120.027 62.3116C121.614 63.3157 123.486 63.8242 125.586 63.8242C127.686 63.8242 129.558 63.3157 131.145 62.3116C132.732 61.3076 133.982 59.8871 134.867 58.0851C135.749 56.292 136.196 54.1699 136.196 51.7761C136.196 49.3822 135.749 47.2252 134.867 45.4232C133.982 43.6125 132.728 42.1876 131.145 41.1835ZM131.527 55.9763C131.053 57.2477 130.317 58.2868 129.339 59.0672C128.366 59.8389 127.103 60.2335 125.586 60.2335C124.069 60.2335 122.806 59.8433 121.833 59.0672C120.851 58.2868 120.114 57.2477 119.645 55.9763C119.167 54.6917 118.926 53.2799 118.926 51.7761C118.926 50.2723 119.167 48.8561 119.645 47.5627C120.119 46.2825 120.855 45.2303 121.837 44.4411C122.811 43.6607 124.073 43.2617 125.59 43.2617C127.107 43.2617 128.37 43.6563 129.343 44.4411C130.325 45.2303 131.062 46.2781 131.535 47.5627C132.013 48.8561 132.254 50.2767 132.254 51.7761C132.254 53.2755 132.013 54.6917 131.535 55.9763H131.527Z" fill="black"/>
<path d="M150.059 43.2705L150.033 39.8507C150.033 39.7236 149.928 39.6227 149.805 39.6183C149.516 39.614 149.266 39.6096 149.055 39.6096C147.643 39.6096 146.359 39.9779 145.232 40.7057C144.237 41.3458 143.505 42.17 143.049 43.1565V40.2015C143.049 40.0743 142.943 39.9691 142.816 39.9691H139.449C139.322 39.9691 139.217 40.0743 139.217 40.2015V63.2543C139.217 63.3814 139.322 63.4866 139.449 63.4866H142.935C143.062 63.4866 143.167 63.3814 143.167 63.2543V48.6062C143.167 47.6154 143.408 46.721 143.89 45.9449C144.373 45.1689 145.039 44.5507 145.872 44.1079C146.71 43.6651 147.679 43.4371 148.753 43.4371C149.112 43.4371 149.463 43.459 149.796 43.4985C149.936 43.516 150.055 43.4108 150.055 43.2705H150.059Z" fill="black"/>
<path d="M177.207 39.9735H180.693C180.82 39.9735 180.925 40.0787 180.925 40.2058V63.3507C180.925 63.4779 180.82 63.5831 180.693 63.5831H177.207C177.08 63.5831 176.975 63.4779 176.975 63.3507V40.2058C176.975 40.0787 177.08 39.9735 177.207 39.9735Z" fill="black"/>
<path d="M178.978 31.3627C178.237 31.3627 177.593 31.6169 177.062 32.1255C176.527 32.6341 176.256 33.2523 176.256 33.9669C176.256 34.6816 176.527 35.2998 177.062 35.8084C177.593 36.3126 178.237 36.5712 178.978 36.5712C179.719 36.5712 180.364 36.3169 180.894 35.8084C181.429 35.2998 181.701 34.6816 181.701 33.9669C181.701 33.2523 181.429 32.6341 180.894 32.1255C180.364 31.6213 179.719 31.3627 178.978 31.3627Z" fill="black"/>
<path d="M199.729 41.0301C198.809 40.4821 197.848 40.1138 196.862 39.934C195.893 39.7586 195.025 39.671 194.275 39.671C193.109 39.671 191.903 39.8332 190.702 40.1488C189.487 40.4689 188.356 41.0345 187.339 41.8324C186.37 42.5909 185.577 43.6388 184.98 44.9497C184.923 45.0725 184.985 45.2215 185.112 45.2654L188.418 46.4754C188.527 46.5149 188.646 46.4667 188.703 46.3614C189.089 45.6249 189.711 44.919 190.566 44.2614C191.478 43.5555 192.767 43.2003 194.398 43.2003C196.029 43.2003 197.129 43.5905 197.883 44.3622C198.642 45.1338 199.023 46.2387 199.023 47.6504V47.7688C199.023 48.2599 198.861 48.5887 198.524 48.7816C198.147 48.9964 197.533 49.1499 196.695 49.2419C195.827 49.334 194.683 49.4743 193.293 49.6541C192.228 49.7944 191.154 49.9829 190.101 50.2197C189.036 50.4564 188.049 50.8203 187.168 51.2938C186.274 51.7761 185.546 52.4513 185.011 53.3018C184.472 54.1524 184.2 55.2704 184.2 56.6208C184.2 58.1509 184.564 59.475 185.283 60.5579C185.998 61.6365 186.98 62.4739 188.194 63.0394C189.404 63.605 190.763 63.89 192.245 63.89C193.604 63.89 194.771 63.6839 195.722 63.2762C196.669 62.8685 197.441 62.3642 198.015 61.7811C198.44 61.3471 198.778 60.9306 199.028 60.5316V63.285C199.028 63.4033 199.124 63.4954 199.238 63.4954H202.768C202.886 63.4954 202.978 63.3989 202.978 63.285V48.0187C202.978 46.1685 202.667 44.6647 202.057 43.5511C201.444 42.4375 200.659 41.5913 199.729 41.0345V41.0301ZM199.028 54.8232C199.028 55.7395 198.787 56.6208 198.318 57.4538C197.844 58.2824 197.138 58.9708 196.213 59.4969C195.288 60.023 194.135 60.2905 192.785 60.2905C191.434 60.2905 190.303 59.9879 189.43 59.3917C188.571 58.8042 188.155 57.958 188.155 56.7962C188.155 55.9587 188.378 55.2923 188.821 54.81C189.277 54.3146 189.891 53.9376 190.645 53.6877C191.421 53.429 192.267 53.2405 193.17 53.1221C193.547 53.0739 194.043 53.0081 194.657 52.9336C195.27 52.859 195.911 52.767 196.564 52.6617C197.221 52.5565 197.813 52.4294 198.322 52.2803C198.611 52.197 198.844 52.1093 199.028 52.0128V54.8232Z" fill="black"/>
<path d="M222.637 52.653C221.607 51.6095 220.029 50.8203 217.951 50.3161L214.544 49.4787C213.224 49.1499 212.247 48.7334 211.637 48.2467C211.05 47.7776 210.76 47.1506 210.76 46.3351C210.76 45.4144 211.186 44.6735 212.067 44.0684C212.957 43.4546 214.097 43.1433 215.451 43.1433C216.438 43.1433 217.258 43.3012 217.88 43.6125C218.507 43.9238 219.007 44.3227 219.367 44.8006C219.687 45.2215 219.945 45.66 220.134 46.1028C220.182 46.2124 220.296 46.2694 220.41 46.2387L223.541 45.3267C223.668 45.2873 223.742 45.147 223.698 45.0198C223.128 43.459 222.203 42.1788 220.936 41.2099C219.603 40.1883 217.758 39.671 215.451 39.671C213.816 39.671 212.33 39.9647 211.041 40.5434C209.743 41.1222 208.704 41.9377 207.954 42.9592C207.2 43.9895 206.814 45.1864 206.814 46.5237C206.814 48.1546 207.327 49.5357 208.344 50.6186C209.348 51.6972 210.94 52.4995 213.075 53.0037L216.903 53.9025C218.016 54.1612 218.845 54.5514 219.371 55.0643C219.893 55.5685 220.143 56.178 220.143 56.9233C220.143 57.844 219.696 58.6156 218.775 59.2821C217.845 59.9529 216.569 60.2948 214.978 60.2948C213.584 60.2948 212.448 59.9967 211.593 59.4048C210.8 58.8568 210.239 58.0369 209.923 56.9628C209.888 56.8444 209.765 56.7698 209.647 56.8005L206.328 57.6248C206.205 57.6555 206.126 57.7826 206.152 57.9054C206.6 59.795 207.59 61.2638 209.107 62.2634C210.668 63.2981 212.663 63.8242 215.039 63.8242C216.846 63.8242 218.45 63.5173 219.818 62.9079C221.191 62.2985 222.278 61.4479 223.05 60.3869C223.826 59.3171 224.22 58.0895 224.22 56.7348C224.22 55.0819 223.69 53.7052 222.651 52.6486L222.637 52.653Z" fill="black"/>
<path d="M98.5916 58.6288C96.623 58.6288 95.847 58.1246 95.847 56.8794C95.847 55.3669 97.8199 54.6215 97.8199 54.6215C99.1264 55.117 100.665 55.3625 102.327 55.3625C107.926 55.3625 111.916 52.4074 111.916 47.6899C111.916 46.6727 111.578 44.9409 110.197 43.2617H114.441C114.568 43.2617 114.673 43.1565 114.673 43.0294V40.2015C114.673 40.0743 114.568 39.9691 114.441 39.9691H102.327C96.7808 39.9691 92.8437 42.9241 92.8437 47.6899C92.8437 50.1758 93.931 52.197 95.7987 53.5474C93.7775 54.4286 92.379 55.8272 92.379 57.7958C92.379 59.3478 93.1462 60.7289 94.8429 61.4786C94.1064 61.6671 90.7217 62.8202 90.7217 66.4548C90.7217 70.655 95.7987 72.571 101.915 72.571C108.654 72.571 114.976 70.392 114.976 64.7449C114.976 61.2199 112.385 58.6288 107.461 58.6288H98.5916ZM102.345 43.2661C105.799 43.2661 107.921 44.8401 107.921 47.7162C107.921 50.5923 105.804 52.0698 102.345 52.0698C98.8853 52.0698 96.8247 50.4959 96.8247 47.7162C96.8247 44.9365 98.9423 43.2661 102.345 43.2661ZM101.919 69.2345C97.6533 69.2345 94.7026 68.0639 94.7026 65.3807C94.7026 63.0877 96.7589 62.3555 99.1264 62.3555H106.553C109.241 62.3555 110.977 63.0394 110.977 64.9905C110.977 68.0639 107.185 69.2345 101.919 69.2345Z" fill="black"/>
<path d="M157.499 58.6288C155.531 58.6288 154.755 58.1246 154.755 56.8794C154.755 55.3669 156.728 54.6215 156.728 54.6215C158.034 55.117 159.573 55.3625 161.235 55.3625C166.834 55.3625 170.823 52.4074 170.823 47.6899C170.823 46.6727 170.486 44.9409 169.105 43.2617H173.349C173.476 43.2617 173.581 43.1565 173.581 43.0294V40.2015C173.581 40.0743 173.476 39.9691 173.349 39.9691H161.235C155.689 39.9691 151.752 42.9241 151.752 47.6899C151.752 50.1758 152.839 52.197 154.707 53.5474C152.685 54.4286 151.287 55.8272 151.287 57.7958C151.287 59.3478 152.054 60.7289 153.751 61.4786C153.014 61.6671 149.63 62.8202 149.63 66.4548C149.63 70.655 154.707 72.571 160.823 72.571C167.561 72.571 173.884 70.392 173.884 64.7449C173.884 61.2199 171.293 58.6288 166.369 58.6288H157.499ZM161.252 43.2661C164.707 43.2661 166.829 44.8401 166.829 47.7162C166.829 50.5923 164.712 52.0698 161.252 52.0698C157.793 52.0698 155.733 50.4959 155.733 47.7162C155.733 44.9365 157.85 43.2661 161.252 43.2661ZM160.827 69.2345C156.561 69.2345 153.611 68.0639 153.611 65.3807C153.611 63.0877 155.667 62.3555 158.034 62.3555H165.461C168.149 62.3555 169.885 63.0394 169.885 64.9905C169.885 68.0639 166.093 69.2345 160.827 69.2345Z" fill="black"/>
<path d="M131.145 5.51259C129.558 4.50858 127.686 4 125.586 4C123.486 4 121.614 4.50858 120.027 5.51259C118.439 6.51661 117.19 7.94151 116.304 9.75224C115.423 11.5586 114.976 13.6938 114.976 16.1051C114.976 18.5165 115.423 20.621 116.304 22.4142C117.19 24.2161 118.444 25.6367 120.027 26.6407C121.614 27.6447 123.486 28.1533 125.586 28.1533C127.686 28.1533 129.558 27.6447 131.145 26.6407C132.732 25.6367 133.982 24.2161 134.867 22.4142C135.749 20.621 136.196 18.499 136.196 16.1051C136.196 13.7113 135.749 11.5542 134.867 9.75224C133.982 7.94151 132.728 6.51661 131.145 5.51259ZM131.527 20.3053C131.053 21.5768 130.317 22.6159 129.339 23.3963C128.366 24.1679 127.103 24.5625 125.586 24.5625C124.069 24.5625 122.806 24.1723 121.833 23.3963C120.851 22.6159 120.114 21.5768 119.645 20.3053C119.167 19.0207 118.926 17.609 118.926 16.1051C118.926 14.6013 119.167 13.1852 119.645 11.8918C120.119 10.6116 120.855 9.55933 121.837 8.77015C122.811 7.98974 124.073 7.59077 125.59 7.59077C127.107 7.59077 128.37 7.98536 129.343 8.77015C130.325 9.55933 131.062 10.6072 131.535 11.8918C132.013 13.1852 132.254 14.6057 132.254 16.1051C132.254 17.6046 132.013 19.0207 131.535 20.3053H131.527Z" fill="#FFEDDF"/>
<path d="M240.39 41.2025C238.803 40.1985 236.93 39.6899 234.83 39.6899C232.73 39.6899 230.858 40.1985 229.271 41.2025C227.684 42.2065 226.434 43.6315 225.549 45.4422C224.667 47.2485 224.22 49.3837 224.22 51.7951C224.22 54.2065 224.667 56.3109 225.549 58.1041C226.434 59.9061 227.688 61.3266 229.271 62.3306C230.858 63.3346 232.73 63.8432 234.83 63.8432C236.93 63.8432 238.803 63.3346 240.39 62.3306C241.977 61.3266 243.226 59.9061 244.112 58.1041C244.993 56.3109 245.44 54.1889 245.44 51.7951C245.44 49.4012 244.993 47.2441 244.112 45.4422C243.226 43.6315 241.972 42.2065 240.39 41.2025ZM240.771 55.9953C240.298 57.2667 239.561 58.3058 238.583 59.0862C237.61 59.8579 236.347 60.2524 234.83 60.2524C233.313 60.2524 232.051 59.8622 231.077 59.0862C230.095 58.3058 229.359 57.2667 228.89 55.9953C228.412 54.7107 228.171 53.2989 228.171 51.7951C228.171 50.2912 228.412 48.8751 228.89 47.5817C229.363 46.3015 230.1 45.2493 231.082 44.4601C232.055 43.6797 233.318 43.2807 234.835 43.2807C236.352 43.2807 237.614 43.6753 238.588 44.4601C239.57 45.2493 240.306 46.2971 240.78 47.5817C241.258 48.8751 241.499 50.2956 241.499 51.7951C241.499 53.2945 241.258 54.7107 240.78 55.9953H240.771Z" fill="#FFEDDF"/>
<path d="M19.2242 41.2025C17.637 40.1985 15.7649 39.6899 13.6648 39.6899C11.5647 39.6899 9.69263 40.1985 8.1055 41.2025C6.51837 42.2065 5.26883 43.6315 4.38319 45.4422C3.50194 47.2485 3.05475 49.3837 3.05475 51.7951C3.05475 54.2065 3.50194 56.3109 4.38319 58.1041C5.26883 59.9061 6.52276 61.3266 8.1055 62.3306C9.69263 63.3346 11.5647 63.8432 13.6648 63.8432C15.7649 63.8432 17.637 63.3346 19.2242 62.3306C20.8113 61.3266 22.0608 59.9061 22.9464 58.1041C23.8277 56.3109 24.2749 54.1889 24.2749 51.7951C24.2749 49.4012 23.8277 47.2441 22.9464 45.4422C22.0608 43.6315 20.8069 42.2065 19.2242 41.2025ZM19.6056 55.9953C19.1321 57.2667 18.3955 58.3058 17.4178 59.0862C16.4445 59.8579 15.1818 60.2524 13.6648 60.2524C12.1478 60.2524 10.8852 59.8622 9.91183 59.0862C8.92974 58.3058 8.19318 57.2667 7.72405 55.9953C7.24616 54.7107 7.00503 53.2989 7.00503 51.7951C7.00503 50.2912 7.24616 48.8751 7.72405 47.5817C8.19756 46.3015 8.93413 45.2493 9.91622 44.4601C10.8895 43.6797 12.1522 43.2807 13.6692 43.2807C15.1862 43.2807 16.4489 43.6753 17.4222 44.4601C18.4043 45.2493 19.1409 46.2971 19.6144 47.5817C20.0923 48.8751 20.3334 50.2956 20.3334 51.7951C20.3334 53.2945 20.0923 54.7107 19.6144 55.9953H19.6056Z" fill="#FFEDDF"/>
<path d="M87.7646 41.2389C86.1774 40.2349 84.3053 39.7263 82.2052 39.7263C80.1051 39.7263 78.233 40.2349 76.6459 41.2389C75.0588 42.2429 73.8092 43.6678 72.9236 45.4786C72.0423 47.2849 71.5952 49.4201 71.5952 51.8315C71.5952 54.2428 72.0423 56.3473 72.9236 58.1405C73.8092 59.9425 75.0632 61.363 76.6459 62.367C78.233 63.371 80.1051 63.8796 82.2052 63.8796C84.3053 63.8796 86.1774 63.371 87.7646 62.367C89.3517 61.363 90.6012 59.9425 91.4869 58.1405C92.3681 56.3473 92.8153 54.2253 92.8153 51.8315C92.8153 49.4376 92.3681 47.2805 91.4869 45.4786C90.6012 43.6678 89.3473 42.2429 87.7646 41.2389ZM88.146 56.0316C87.6725 57.3031 86.9359 58.3422 85.9582 59.1226C84.9849 59.8942 83.7222 60.2888 82.2052 60.2888C80.6883 60.2888 79.4256 59.8986 78.4522 59.1226C77.4701 58.3422 76.7336 57.3031 76.2645 56.0316C75.7866 54.747 75.5454 53.3353 75.5454 51.8315C75.5454 50.3276 75.7866 48.9115 76.2645 47.6181C76.738 46.3379 77.4745 45.2856 78.4566 44.4965C79.4299 43.7161 80.6926 43.3171 82.2096 43.3171C83.7266 43.3171 84.9893 43.7117 85.9626 44.4965C86.9447 45.2856 87.6813 46.3335 88.1548 47.6181C88.6327 48.9115 88.8738 50.332 88.8738 51.8315C88.8738 53.3309 88.6327 54.747 88.1548 56.0316H88.146Z" fill="#FFEDDF"/>
<rect x="3.125" y="4.125" width="242.19" height="95.283" stroke="black" stroke-width="0.25" stroke-dasharray="1 1"/>
<path d="M245.44 28.1533H3.03113" stroke="black" stroke-width="0.25" stroke-dasharray="1 1"/>
<path d="M245.44 39.9919H3.03113" stroke="black" stroke-width="0.25" stroke-dasharray="1 1"/>
<path d="M245.44 63.4607H3.03113" stroke="black" stroke-width="0.25" stroke-dasharray="1 1"/>
<path d="M24.2202 4.00006L24.2202 99.533" stroke="black" stroke-width="0.25" stroke-dasharray="1 1"/>
<path d="M224.22 4.00006L224.22 99.533" stroke="black" stroke-width="0.25" stroke-dasharray="1 1"/>
<path d="M136.196 4L136.196 63.4607" stroke="black" stroke-width="0.25" stroke-dasharray="1 1"/>
<path d="M114.976 4L114.976 63.4607" stroke="black" stroke-width="0.25" stroke-dasharray="1 1"/>
<path d="M245.44 75.4033H3.03113" stroke="black" stroke-width="0.25" stroke-dasharray="1 1"/>
</svg>
